<svg width="17" height="16" viewBox="0 0 17 16" fill="none" xmlns="http://www.w3.org/2000/svg">
<path d="M8.33822 1.44091C10.5661 1.44091 10.8299 1.45028 11.7061 1.48779C12.5204 1.52217 12.9601 1.65345 13.2532 1.76284C13.6408 1.90662 13.9209 2.08166 14.2108 2.35984C14.5039 2.64114 14.6831 2.90682 14.8329 3.27877C14.9469 3.56007 15.0837 3.98515 15.1195 4.76343C15.1586 5.60735 15.1684 5.86052 15.1684 7.99531C15.1684 10.1332 15.1586 10.3864 15.1195 11.2272C15.0837 12.0086 14.9469 12.4306 14.8329 12.7119C14.6831 13.0838 14.5007 13.3526 14.2108 13.6308C13.9177 13.9121 13.6408 14.084 13.2532 14.2278C12.9601 14.3372 12.5171 14.4685 11.7061 14.5028C10.8267 14.5403 10.5628 14.5497 8.33822 14.5497C6.11035 14.5497 5.84653 14.5403 4.97036 14.5028C4.15608 14.4685 3.71637 14.3372 3.42323 14.2278C3.03563 14.084 2.75552 13.909 2.46564 13.6308C2.1725 13.3495 1.99336 13.0838 1.84353 12.7119C1.72953 12.4306 1.59273 12.0055 1.5569 11.2272C1.51782 10.3833 1.50805 10.1301 1.50805 7.99531C1.50805 5.85739 1.51782 5.60422 1.5569 4.76343C1.59273 3.98203 1.72953 3.56007 1.84353 3.27877C1.99336 2.90682 2.17575 2.63802 2.46564 2.35984C2.75878 2.07853 3.03563 1.90662 3.42323 1.76284C3.71637 1.65345 4.15934 1.52217 4.97036 1.48779C5.84653 1.45028 6.11035 1.44091 8.33822 1.44091ZM8.33822 0C6.07452 0 5.79115 0.00937683 4.90196 0.0468842C4.01603 0.0843915 3.40694 0.221918 2.87929 0.418832C2.32884 0.625122 1.86307 0.89705 1.40056 1.34401C0.934793 1.78785 0.651424 2.23481 0.436454 2.75991C0.231255 3.26939 0.0879422 3.85075 0.0488568 4.70092C0.00977135 5.55734 0 5.82926 0 8.00156C0 10.1739 0.00977135 10.4458 0.0488568 11.2991C0.0879422 12.1492 0.231255 12.7337 0.436454 13.2401C0.651424 13.7683 0.934793 14.2153 1.40056 14.6591C1.86307 15.103 2.32884 15.378 2.87603 15.5812C3.40694 15.7781 4.01277 15.9156 4.8987 15.9531C5.7879 15.9906 6.07127 16 8.33496 16C10.5987 16 10.882 15.9906 11.7712 15.9531C12.6572 15.9156 13.2662 15.7781 13.7939 15.5812C14.3411 15.378 14.8069 15.103 15.2694 14.6591C15.7319 14.2153 16.0185 13.7683 16.2302 13.2432C16.4354 12.7337 16.5787 12.1524 16.6178 11.3022C16.6569 10.4489 16.6667 10.177 16.6667 8.00469C16.6667 5.83239 16.6569 5.56046 16.6178 4.70717C16.5787 3.857 16.4354 3.27251 16.2302 2.76617C16.025 2.23481 15.7416 1.78785 15.2759 1.34401C14.8134 0.900176 14.3476 0.625122 13.8004 0.421957C13.2695 0.225044 12.6637 0.0875171 11.7777 0.0500098C10.8853 0.00937684 10.6019 0 8.33822 0Z" fill="#111111"/>
<path d="M8.33333 4C5.94094 4 4 5.79164 4 8C4 10.2084 5.94094 12 8.33333 12C10.7257 12 12.6667 10.2084 12.6667 8C12.6667 5.79164 10.7257 4 8.33333 4ZM8.33333 10.5947C6.78124 10.5947 5.52243 9.4327 5.52243 8C5.52243 6.5673 6.78124 5.40532 8.33333 5.40532C9.88542 5.40532 11.1442 6.5673 11.1442 8C11.1442 9.4327 9.88542 10.5947 8.33333 10.5947Z" fill="#111111"/>
<path d="M14 3.66724C14 4.22098 13.5505 4.66724 13 4.66724C12.4463 4.66724 12 4.21772 12 3.66724C12 3.11349 12.4495 2.66724 13 2.66724C13.5505 2.66724 14 3.11675 14 3.66724Z" fill="#111111"/>
</svg>
