<svg width="18" height="18" viewBox="0 0 18 18" fill="none" xmlns="http://www.w3.org/2000/svg">
<path d="M9.0007 0.720703C4.43514 0.720703 0.720703 4.43514 0.720703 9.0007C0.720703 12.559 2.97703 15.5996 6.1338 16.7684C6.04288 15.9578 6.05714 14.6304 6.20717 13.9876C6.34766 13.3839 7.11481 10.1403 7.11481 10.1403C7.11481 10.1403 6.88322 9.67647 6.88322 8.99147C6.88322 7.91501 7.50689 7.11185 8.28356 7.11185C8.94415 7.11185 9.26268 7.60779 9.26268 8.202C9.26268 8.86645 8.84024 9.85895 8.62143 10.7788C8.43895 11.5496 9.00784 12.178 9.76755 12.178C11.1432 12.178 12.2006 10.7273 12.2006 8.63365C12.2006 6.78052 10.8693 5.48466 8.96796 5.48466C6.76593 5.48466 5.47334 7.13654 5.47334 8.84382C5.47334 9.50886 5.72937 10.2221 6.04938 10.6103C6.11248 10.6871 6.12171 10.7541 6.10297 10.8321C6.04433 11.0765 5.91394 11.6022 5.88803 11.71C5.85439 11.852 5.7758 11.8815 5.62933 11.8133C4.66244 11.3632 4.05811 9.95005 4.05811 8.81464C4.05811 6.37328 5.83176 4.13075 9.17246 4.13075C11.8577 4.13075 13.9442 6.04373 13.9442 8.6012C13.9442 11.2688 12.2619 13.4155 9.92771 13.4155C9.1433 13.4155 8.40621 13.0079 8.15407 12.5266C8.15407 12.5266 7.76588 14.0043 7.67151 14.3666C7.50863 14.9932 6.81137 16.2912 6.46135 16.8807C7.26207 17.1394 8.11503 17.2807 9.0007 17.2807C13.5664 17.2807 17.2807 13.5664 17.2807 9.0007C17.2807 4.43514 13.5664 0.720703 9.0007 0.720703Z" fill="black"/>
</svg>
