<svg width="17" height="14" viewBox="0 0 17 14" fill="none" xmlns="http://www.w3.org/2000/svg">
<path d="M5.69831 13.6666C11.7361 13.6666 15.0385 8.53641 15.0385 4.08755C15.0385 3.94183 15.0385 3.79678 15.0289 3.65238C15.6713 3.17579 16.2259 2.5857 16.6666 1.90972C16.0676 2.18211 15.432 2.36067 14.7812 2.43941C15.4665 2.01871 15.9794 1.35693 16.2244 0.57729C15.58 0.969475 14.875 1.24585 14.1399 1.39447C13.645 0.854727 12.9904 0.497323 12.2774 0.377566C11.5645 0.257808 10.8329 0.382372 10.1959 0.731983C9.55897 1.08159 9.05211 1.63676 8.75379 2.31157C8.45547 2.98638 8.38232 3.74322 8.54567 4.46496C7.24056 4.39782 5.9638 4.04996 4.79826 3.44398C3.63273 2.838 2.60447 1.98743 1.78023 0.947482C1.36044 1.68863 1.23187 2.566 1.42069 3.40095C1.60951 4.2359 2.10152 4.96565 2.79655 5.44164C2.27411 5.42594 1.76306 5.2814 1.30663 5.02025V5.06291C1.30683 5.84019 1.56919 6.59348 2.04921 7.19499C2.52922 7.79651 3.19733 8.20922 3.94023 8.36313C3.45695 8.49833 2.94988 8.51809 2.45799 8.42089C2.66784 9.08979 3.07625 9.67472 3.62612 10.0939C4.17599 10.5131 4.83984 10.7456 5.52487 10.7589C4.84425 11.3075 4.06484 11.7132 3.23121 11.9526C2.39758 12.1921 1.5261 12.2606 0.666626 12.1543C2.16785 13.1423 3.91458 13.6664 5.69831 13.664" fill="#111111"/>
</svg>
