<svg width="17" height="16" viewBox="0 0 17 16" fill="none" xmlns="http://www.w3.org/2000/svg">
<g clip-path="url(#clip0_2118_1993)">
<path fill-rule="evenodd" clip-rule="evenodd" d="M15.8151 3.53047C16.0633 3.78166 16.2416 4.09399 16.3321 4.43621C16.6666 5.69933 16.6666 8.33341 16.6666 8.33341C16.6666 8.33341 16.6666 10.9675 16.3321 12.2306C16.2416 12.5728 16.0633 12.8852 15.8151 13.1364C15.5669 13.3875 15.2573 13.5688 14.9175 13.6619C13.6666 14.0001 8.66663 14.0001 8.66663 14.0001C8.66663 14.0001 3.66663 14.0001 2.41572 13.6619C2.07591 13.5688 1.7664 13.3875 1.51815 13.1364C1.2699 12.8852 1.09163 12.5728 1.00117 12.2306C0.666626 10.9675 0.666626 8.33341 0.666626 8.33341C0.666626 8.33341 0.666626 5.69933 1.00117 4.43621C1.09163 4.09399 1.2699 3.78166 1.51815 3.53047C1.7664 3.27928 2.07591 3.09806 2.41572 3.00492C3.66663 2.66675 8.66663 2.66675 8.66663 2.66675C8.66663 2.66675 13.6666 2.66675 14.9175 3.00492C15.2573 3.09806 15.5669 3.27928 15.8151 3.53047ZM11.3333 8.33342L7.33329 6.00008V10.6667L11.3333 8.33342Z" fill="#111111"/>
</g>
<defs>
<clipPath id="clip0_2118_1993">
<rect width="16" height="16" fill="white" transform="translate(0.666626)"/>
</clipPath>
</defs>
</svg>
